HIERARCHY
ROOT Pelvis
{
	OFFSET 0.000000 0.000000 0.000000
	CHANNELS 6 Xposition Yposition Zposition Xrotation Yrotation Zrotation
	JOINT LeftUpLeg_virtual
	{
		OFFSET 0.000000 0.000000 0.000000
		CHANNELS 3 Xrotation Yrotation Zrotation
		JOINT LeftUpLeg
		{
			OFFSET 18.735201 -5.666702 -4.541200
			CHANNELS 3 Xrotation Yrotation Zrotation
			JOINT LeftLeg
			{
				OFFSET -0.021200 -31.938179 0.493100
				CHANNELS 3 Xrotation Yrotation Zrotation
				JOINT LeftFoot
				{
					OFFSET 0.021200 -31.938179 -4.336299
					CHANNELS 3 Xrotation Yrotation Zrotation
					JOINT LeftToeBase
					{
						OFFSET 0.943001 -26.722000 15.023500
						CHANNELS 3 Xrotation Yrotation Zrotation
						End Site
						{
							OFFSET 0 0 0
						}
					}
				}
			}
		}
	}
	JOINT RightUpLeg_virtual
	{
		OFFSET 0.000000 0.000000 0.000000
		CHANNELS 3 Xrotation Yrotation Zrotation
		JOINT RightUpLeg
		{
			OFFSET -18.735201 -5.666702 -4.541200
			CHANNELS 3 Xrotation Yrotation Zrotation
			JOINT RightLeg
			{
				OFFSET 0.018946 -31.938133 0.493100
				CHANNELS 3 Xrotation Yrotation Zrotation
				JOINT RightFoot
				{
					OFFSET -0.018946 -31.938126 -4.336299
					CHANNELS 3 Xrotation Yrotation Zrotation
					JOINT RightToeBase
					{
						OFFSET -0.943001 -26.722004 15.023500
						CHANNELS 3 Xrotation Yrotation Zrotation
						End Site
						{
							OFFSET 0 0 0
						}
					}
				}
			}
		}
	}
	JOINT Hips_virtual
	{
		OFFSET 0.000000 0.000000 0.000000
		CHANNELS 3 Xrotation Yrotation Zrotation
		JOINT Hips
		{
			OFFSET -0.000000 -0.000000 -0.000000
			CHANNELS 3 Xrotation Yrotation Zrotation
			JOINT Spine
			{
				OFFSET 0.000000 10.199997 -0.299500
				CHANNELS 3 Xrotation Yrotation Zrotation
				JOINT Spine1
				{
					OFFSET 0.000000 11.900002 -1.516600
					CHANNELS 3 Xrotation Yrotation Zrotation
					JOINT Spine2
					{
						OFFSET 0.000000 13.600006 -2.842500
						CHANNELS 3 Xrotation Yrotation Zrotation
						JOINT Neck_virtual
						{
							OFFSET 0.000000 0.000000 0.000000
							CHANNELS 3 Xrotation Yrotation Zrotation
							JOINT Neck
							{
								OFFSET 0.000000 9.624100 -2.890100
								CHANNELS 3 Xrotation Yrotation Zrotation
								JOINT Head
								{
									OFFSET 0.000000 14.068802 -1.351900
									CHANNELS 3 Xrotation Yrotation Zrotation
									End Site
									{
										OFFSET 0 0 0
									}
								}
							}
						}
						JOINT LeftShoulder_virtual
						{
							OFFSET 0.000000 0.000000 0.000000
							CHANNELS 3 Xrotation Yrotation Zrotation
							JOINT LeftShoulder
							{
								OFFSET 15.263000 10.923401 -0.547700
								CHANNELS 3 Xrotation Yrotation Zrotation
								JOINT LeftArm
								{
									OFFSET 25.438599 -2.830597 -13.032500
									CHANNELS 3 Xrotation Yrotation Zrotation
									JOINT LeftForeArm
									{
										OFFSET 29.960503 0.000000 0.000000
										CHANNELS 3 Xrotation Yrotation Zrotation
										JOINT LeftHand
										{
											OFFSET 27.849251 0.000000 0.000000
											CHANNELS 3 Xrotation Yrotation Zrotation
											End Site
											{
												OFFSET 0 0 0
											}
										}
									}
								}
							}
						}
						JOINT RightShoulder_virtual
						{
							OFFSET 0.000000 0.000000 0.000000
							CHANNELS 3 Xrotation Yrotation Zrotation
							JOINT RightShoulder
							{
								OFFSET -15.263000 10.923401 -0.547700
								CHANNELS 3 Xrotation Yrotation Zrotation
								JOINT RightArm
								{
									OFFSET -25.438599 -2.830597 -13.032500
									CHANNELS 3 Xrotation Yrotation Zrotation
									JOINT RightForeArm
									{
										OFFSET -29.960503 0.000000 0.000000
										CHANNELS 3 Xrotation Yrotation Zrotation
										JOINT RightHand
										{
											OFFSET -27.849251 0.000000 0.000000
											CHANNELS 3 Xrotation Yrotation Zrotation
											End Site
											{
												OFFSET 0 0 0
											}
										}
									}
								}
							}
						}
					}
				}
			}
		}
	}
}
MOTION
Frames: 11
Frame Time: 0.03333333
1.002082 86.431717 3.740929 0.000000 0.000000 0.000000 3.593966 -6.309724 -0.105457 -44.571923 8.357272 19.854528 60.851474 9.372335 -0.773239 10.430780 5.145766 -9.407209 0.000000 0.000000 0.000000 4.122652 -5.463707 -0.156745 -35.168968 -7.016483 2.251813 51.037714 -3.953964 -1.033532 -24.378210 -3.819023 -6.730196 0.000000 0.000000 0.000000 4.524582 -5.649283 0.536573 -0.507599 -0.087561 -0.703033 9.986280 3.225695 5.760288 6.276362 1.110833 0.995954 0.000000 0.000000 0.000000 6.065186 1.354787 0.735314 0.851658 -0.253642 -0.510850 0.000000 0.000000 0.000000 6.507887 1.570272 0.558376 1.889900 -8.451614 -13.595074 -26.918349 -3.733840 -70.177209 0.837375 -31.617526 -0.211817 0.000000 0.000000 0.000000 6.627494 1.619647 0.806452 4.731158 16.437863 6.543832 -16.076238 0.167301 68.633545 1.920830 22.378678 -1.209541 0.000000 0.000000 0.000000 
0.901046 86.524155 4.206913 0.000000 0.000000 0.000000 3.437256 -6.415140 0.010317 -44.888092 7.794352 19.558867 60.669661 8.632298 -0.910127 8.681427 3.987781 -9.665427 0.000000 0.000000 0.000000 4.158618 -5.288809 -0.294885 -34.772032 -7.156525 2.632433 50.185365 -4.207400 -1.154414 -23.799979 -3.872471 -6.594255 0.000000 0.000000 0.000000 4.298297 -5.399962 0.560945 -0.438240 -0.200250 -0.809124 9.941032 3.348812 5.862621 6.261321 1.136578 0.974329 0.000000 0.000000 0.000000 6.052459 1.394233 0.719208 0.821354 -0.282073 -0.517760 0.000000 0.000000 0.000000 6.451129 1.621213 0.580547 1.897308 -8.494177 -13.709873 -27.154436 -3.550743 -70.391431 0.931066 -31.692583 -0.102873 0.000000 0.000000 0.000000 6.643429 1.664049 0.777037 4.665028 16.271625 6.389198 -16.307896 -0.130339 68.218092 1.938858 22.138089 -1.143259 0.000000 0.000000 0.000000 
0.671898 86.938789 5.216824 0.000000 0.000000 0.000000 3.702298 -6.581488 0.689189 -45.431089 7.598895 18.349728 58.698379 7.704085 -1.404497 7.272875 3.040248 -9.614668 0.000000 0.000000 0.000000 4.471981 -5.234544 0.239590 -33.798754 -7.118205 2.796572 48.485908 -4.468322 -1.394496 -23.730681 -3.894374 -5.857354 0.000000 0.000000 0.000000 4.232809 -5.293706 1.125838 -0.330503 -0.629562 -1.010593 9.732191 3.479509 5.881232 6.217967 1.189561 0.930925 0.000000 0.000000 0.000000 6.014915 1.501520 0.679121 0.809570 -0.344596 -0.498614 0.000000 0.000000 0.000000 6.380846 1.720956 0.558901 1.829799 -8.647387 -13.838260 -27.039047 -2.961064 -70.692369 0.923746 -32.020815 -0.033485 0.000000 0.000000 0.000000 6.643328 1.764660 0.742761 4.470751 16.061897 6.511180 -16.259629 -1.187289 67.605240 1.868536 22.179224 -1.067719 0.000000 0.000000 0.000000 
0.353503 87.557442 6.556725 0.000000 0.000000 0.000000 4.248536 -6.577713 1.779786 -45.880754 7.760477 16.316576 54.741582 6.728397 -1.999373 6.741694 2.262951 -9.402196 0.000000 0.000000 0.000000 4.944841 -5.143767 1.329198 -32.451912 -7.071679 2.497303 46.622018 -4.784072 -1.566282 -24.433655 -3.884057 -4.790932 0.000000 0.000000 0.000000 4.358941 -5.299376 2.072168 -0.235282 -0.998856 -1.161423 9.390056 3.589755 5.809709 6.152657 1.261447 0.879346 0.000000 0.000000 0.000000 5.985600 1.639701 0.630969 0.816732 -0.430257 -0.462805 0.000000 0.000000 0.000000 6.320695 1.838335 0.505350 1.699323 -8.843249 -13.978984 -26.520793 -2.162641 -70.994475 0.861069 -32.508323 0.006190 0.000000 0.000000 0.000000 6.620242 1.890203 0.707994 4.192633 15.835998 6.849588 -15.845419 -2.772573 66.815492 1.731485 22.642716 -0.965791 0.000000 0.000000 0.000000 
0.000534 88.235664 8.125332 0.000000 0.000000 0.000000 4.895062 -6.392944 3.044473 -45.911077 8.228238 13.692202 48.832772 5.868151 -2.461562 7.333819 1.721906 -9.068026 0.000000 0.000000 0.000000 5.395919 -5.029763 2.665766 -31.169199 -7.043584 1.685584 45.424508 -5.067963 -1.565346 -24.995917 -3.755404 -3.582339 0.000000 0.000000 0.000000 4.606234 -5.320539 3.211402 -0.076436 -1.171792 -1.200617 8.991153 3.676496 5.638477 6.052375 1.347852 0.818187 0.000000 0.000000 0.000000 5.954261 1.772450 0.583853 0.837752 -0.521927 -0.419351 0.000000 0.000000 0.000000 6.261183 1.948086 0.438545 1.530759 -8.935201 -14.083285 -25.618230 -1.454642 -71.133859 0.787427 -33.043540 0.032198 0.000000 0.000000 0.000000 6.570552 2.008574 0.656529 3.889978 15.566279 7.252724 -15.117288 -4.546433 65.873684 1.537352 23.365237 -0.798348 0.000000 0.000000 0.000000 
-0.458117 88.883202 9.611221 0.000000 0.000000 0.000000 5.448087 -6.228602 4.171139 -45.212557 8.667747 10.831926 41.631359 5.242114 -2.637268 8.436014 1.434118 -8.595504 0.000000 0.000000 0.000000 5.673642 -4.959557 3.901857 -30.240034 -6.858905 0.650123 45.161843 -5.241302 -1.456849 -24.652026 -3.359409 -2.367106 0.000000 0.000000 0.000000 4.912490 -5.313915 4.249447 -0.013851 -1.033705 -1.168699 8.588626 3.774172 5.376837 5.921883 1.459361 0.741222 0.000000 0.000000 0.000000 5.881340 1.880600 0.523456 0.865497 -0.606980 -0.386142 0.000000 0.000000 0.000000 6.179293 2.050502 0.370736 1.353787 -8.827692 -14.112918 -24.308590 -1.060809 -70.972236 0.759422 -33.710767 0.040887 0.000000 0.000000 0.000000 6.484366 2.105549 0.574887 3.616667 15.218174 7.597249 -14.234784 -6.231866 64.891285 1.321563 24.145728 -0.558142 0.000000 0.000000 0.000000 
-0.883826 89.430313 11.047401 0.000000 0.000000 0.000000 5.914664 -6.378915 4.964084 -43.827036 8.609393 8.097271 34.137490 4.808417 -2.429218 9.063531 1.357818 -8.032018 0.000000 0.000000 0.000000 5.822849 -5.070105 4.761336 -29.524685 -6.391631 -0.263408 45.452730 -5.404339 -1.355663 -24.051285 -2.603930 -1.299382 0.000000 0.000000 0.000000 5.230841 -5.511192 5.006618 -0.071219 -0.697831 -1.015661 8.204259 3.916279 5.071418 5.780039 1.611301 0.638646 0.000000 0.000000 0.000000 5.748070 1.985186 0.440423 0.893537 -0.673579 -0.378860 0.000000 0.000000 0.000000 6.040878 2.168591 0.296052 1.173701 -8.518283 -14.062926 -22.626822 -1.080164 -70.409709 0.788918 -34.642897 0.026878 0.000000 0.000000 0.000000 6.327716 2.194728 0.456700 3.370855 14.702834 7.831094 -13.285080 -7.637483 64.095984 1.093070 24.816130 -0.297586 0.000000 0.000000 0.000000 
-1.250992 89.839821 12.479713 0.000000 0.000000 0.000000 6.322673 -6.806788 5.296095 -42.107392 7.962594 5.954995 27.533826 4.529009 -1.950648 8.797226 1.555246 -7.197921 0.000000 0.000000 0.000000 5.931541 -5.491948 5.114105 -28.481576 -5.712947 -0.630418 45.495579 -5.708223 -1.281704 -24.554568 -1.561931 -0.541920 0.000000 0.000000 0.000000 5.514455 -5.926284 5.345844 -0.252301 -0.443926 -0.954177 7.864488 4.130379 4.752079 5.609436 1.807620 0.502984 0.000000 0.000000 0.000000 5.506349 2.124201 0.327568 0.914591 -0.717705 -0.404805 0.000000 0.000000 0.000000 5.808068 2.322454 0.206923 0.996476 -8.063118 -13.923804 -20.811513 -1.408342 -69.351617 0.870856 -35.694213 0.027371 0.000000 0.000000 0.000000 6.090380 2.311900 0.308566 3.107250 14.042330 8.051815 -12.315082 -8.622538 63.763989 0.852946 25.346243 -0.074510 0.000000 0.000000 0.000000 
-1.532077 90.134590 13.970074 0.000000 0.000000 0.000000 6.549169 -7.452188 5.129547 -40.576088 7.092619 4.769339 22.758163 4.466629 -1.412573 7.831128 1.996711 -6.191606 0.000000 0.000000 0.000000 6.031417 -6.172693 4.995046 -26.723069 -5.030590 -0.369351 44.939073 -6.255290 -1.168141 -26.873707 -0.431178 -0.110964 0.000000 0.000000 0.000000 5.827203 -6.503557 5.210203 -0.425358 -0.222420 -0.989090 7.559374 4.401919 4.418742 5.422050 2.041399 0.339000 0.000000 0.000000 0.000000 5.178195 2.305816 0.178532 0.919581 -0.739469 -0.461867 0.000000 0.000000 0.000000 5.495127 2.516419 0.089041 0.833590 -7.609691 -13.729527 -19.230811 -1.830220 -67.792585 0.939254 -36.446473 0.035162 0.000000 0.000000 0.000000 5.780201 2.474626 0.145893 2.786948 13.258690 8.396978 -11.189662 -9.188257 63.951744 0.626558 26.079218 0.086552 0.000000 0.000000 0.000000 
-1.636777 90.270355 15.589012 0.000000 0.000000 0.000000 6.554323 -8.150803 4.576668 -39.615483 6.511416 4.642800 19.782832 4.598058 -0.979245 6.766500 2.557567 -5.252053 0.000000 0.000000 0.000000 6.082828 -6.911125 4.493669 -24.199524 -4.612321 0.239756 43.642266 -7.005085 -0.950406 -30.305853 0.592767 0.090925 0.000000 0.000000 0.000000 6.053177 -7.164219 4.721757 -0.566312 0.013058 -0.924874 7.280552 4.720772 4.057397 5.232131 2.313625 0.160969 0.000000 0.000000 0.000000 4.827943 2.526798 0.006015 0.901275 -0.737821 -0.540145 0.000000 0.000000 0.000000 5.130021 2.736562 -0.050953 0.691936 -7.275522 -13.539446 -18.180575 -2.119207 -65.714814 0.928155 -36.414143 0.076848 0.000000 0.000000 0.000000 5.439546 2.679068 -0.015958 2.407503 12.407848 8.916077 -9.735911 -9.398018 64.429666 0.417051 27.191736 0.204480 0.000000 0.000000 0.000000 
-1.662000 90.241241 17.263748 0.000000 0.000000 0.000000 6.314350 -8.543219 3.787617 -39.289468 6.412004 5.371000 18.316199 4.814239 -0.763648 6.605312 3.208726 -4.538287 0.000000 0.000000 0.000000 6.079761 -7.403741 3.761180 -21.041530 -4.455390 1.041860 41.593472 -7.685409 -0.702539 -33.117005 1.379159 0.190721 0.000000 0.000000 0.000000 6.118472 -7.645638 4.016951 -0.616849 0.180093 -0.840851 6.971205 5.038114 3.650898 5.041218 2.586609 -0.038831 0.000000 0.000000 0.000000 4.463389 2.753019 -0.181582 0.854495 -0.716482 -0.622485 0.000000 0.000000 0.000000 4.751803 2.935540 -0.206036 0.595998 -7.101765 -13.348948 -17.657641 -2.052434 -63.209132 0.790783 -35.564255 0.136143 0.000000 0.000000 0.000000 5.152883 2.892037 -0.175557 2.027523 11.587367 9.560117 -7.922085 -9.222429 64.879619 0.225139 28.695520 0.324149 0.000000 0.000000 0.000000 
